<?xml version="1.0" encoding="UTF-8"?>
<svg version="1.1" xmlns="http://www.w3.org/2000/svg" width="750" height="314">
<path d="M0 0 C2.62198158 1.04000387 3.92486406 2.39916688 5.84765625 4.45703125 C9.09116368 7.82620963 12.43185513 10.94498292 15.9765625 13.9921875 C18.32256683 16.02711944 20.61502075 18.11494092 22.91015625 20.20703125 C28.15941508 24.93774627 33.59324621 29.40286819 39.09765625 33.83203125 C40.21900927 34.74577567 41.34009136 35.65985264 42.4609375 36.57421875 C61.27493916 51.85738057 81.01725044 66.18115816 101.8046875 78.671875 C102.89136719 79.38472656 103.97804688 80.09757812 105.09765625 80.83203125 C105.09765625 81.49203125 105.09765625 82.15203125 105.09765625 82.83203125 C104.07744385 83.16823486 103.05723145 83.50443848 102.00610352 83.85083008 C57.08424986 98.70542724 14.90793792 117.27596768 -21.65234375 147.984375 C-24.29462131 150.15416196 -27.00141985 152.02875423 -29.90234375 153.83203125 C-30.90827618 152.71233265 -31.90692865 151.58609005 -32.90234375 150.45703125 C-33.45921875 149.83054687 -34.01609375 149.2040625 -34.58984375 148.55859375 C-35.90234375 146.83203125 -35.90234375 146.83203125 -35.90234375 144.83203125 C-33.91924043 143.09948952 -31.93022395 141.48930553 -29.83984375 139.89453125 C-29.20860596 139.40726563 -28.57736816 138.92 -27.92700195 138.41796875 C-25.92553192 136.8802389 -23.91540698 135.35454482 -21.90234375 133.83203125 C-21.28810547 133.36522949 -20.67386719 132.89842773 -20.04101562 132.41748047 C-5.98347804 121.77575771 8.71464198 112.28686603 24.20507812 103.86865234 C25.98719323 102.89253512 27.75395934 101.88854353 29.51953125 100.8828125 C67.2657597 79.83203125 67.2657597 79.83203125 81.09765625 79.83203125 C79.86098861 78.23735554 79.86098861 78.23735554 78.09765625 76.83203125 C76.13878568 76.57884731 76.13878568 76.57884731 73.94921875 76.96484375 C73.05750977 77.08375977 72.16580078 77.20267578 71.24707031 77.32519531 C66.17243502 78.14185755 61.10740575 79.00401521 56.04663086 79.90185547 C-15.36071643 92.54013599 -78.72037307 88.01351833 -142.41650391 51.11572266 C-166.31016276 37.30778389 -193.67248451 23.75598998 -222.02734375 29.83203125 C-229.69848202 32.06540062 -237.00645194 35.8369943 -243.90234375 39.83203125 C-244.23234375 40.49203125 -244.56234375 41.15203125 -244.90234375 41.83203125 C-244.42925781 42.20972656 -243.95617187 42.58742187 -243.46875 42.9765625 C-230.3675228 53.88148261 -219.08594678 69.53446997 -216.90234375 86.83203125 C-215.76012565 102.88835429 -218.41814809 117.11695053 -228.27734375 130.20703125 C-234.87643678 136.80612428 -241.55080558 139.35024791 -250.90234375 139.83203125 C-259.31597425 139.1848289 -267.32892758 135.4270085 -273.1015625 129.26953125 C-279.4238106 120.71186787 -284.169131 110.50435017 -284.90234375 99.83203125 C-284.97066406 98.97738281 -285.03898438 98.12273437 -285.109375 97.2421875 C-285.92634348 76.63642694 -276.52639473 57.55429254 -263.90234375 41.83203125 C-284.54578715 31.13470105 -305.93153135 27.41282778 -328.90234375 32.83203125 C-328.26167969 33.42628906 -327.62101563 34.02054688 -326.9609375 34.6328125 C-316.05638849 45.08232817 -308.10330483 56.77521763 -307.40234375 72.33203125 C-308.00724106 85.756849 -314.07536921 97.49489383 -323.65234375 106.70703125 C-331.58754557 113.4774328 -340.69627051 117.28142241 -351.125 117.09765625 C-361.03358294 116.14999994 -368.5280483 111.32266566 -374.90234375 103.83203125 C-382.129692 92.71418497 -384.03957797 81.82830111 -381.90234375 68.83203125 C-378.41408702 54.82213059 -369.23882687 42.26618654 -357.27734375 34.20703125 C-356.49359375 33.75328125 -355.70984375 33.29953125 -354.90234375 32.83203125 C-356.09859375 32.35765625 -357.29484375 31.88328125 -358.52734375 31.39453125 C-359.20023438 31.12769531 -359.873125 30.86085937 -360.56640625 30.5859375 C-366.73528766 28.59497745 -372.98249318 28.58503993 -379.40234375 28.51953125 C-380.73072266 28.47602539 -380.73072266 28.47602539 -382.0859375 28.43164062 C-401.57413494 28.25787755 -420.76600476 34.48711715 -439.27734375 39.89453125 C-472.78593786 49.6413467 -505.49829659 57.08367363 -538.90234375 42.83203125 C-537.58234375 39.86203125 -536.26234375 36.89203125 -534.90234375 33.83203125 C-530.88579621 34.55682178 -527.05748863 35.65180969 -523.15234375 36.83203125 C-517.6697914 38.40172466 -512.59484194 39.60546416 -506.90234375 39.83203125 C-505.94972656 39.88359375 -504.99710938 39.93515625 -504.015625 39.98828125 C-479.96196497 40.67146213 -457.03155193 33.48119481 -434.16796875 26.89453125 C-406.47857608 18.93108557 -373.82555529 10.50386299 -346.265625 23.53125 C-342.59663048 24.95026879 -341.54846584 24.9952113 -337.90234375 23.83203125 C-336.690625 23.52265625 -335.47890625 23.21328125 -334.23046875 22.89453125 C-333.57062988 22.72211914 -332.91079102 22.54970703 -332.23095703 22.37207031 C-325.81649098 20.70554472 -319.55118274 19.1238696 -312.90234375 18.83203125 C-312.165 18.79207031 -311.42765625 18.75210938 -310.66796875 18.7109375 C-293.27632791 18.22783637 -275.56648208 22.29826466 -260.72265625 31.41650391 C-258.80249245 32.60128608 -258.80249245 32.60128608 -255.90234375 33.83203125 C-253.77845287 33.39492723 -253.77845287 33.39492723 -251.90234375 31.83203125 C-250.87882812 31.23648438 -249.8553125 30.6409375 -248.80078125 30.02734375 C-248.23319092 29.69299316 -247.66560059 29.35864258 -247.08081055 29.01416016 C-228.09244423 17.88384661 -207.59320015 14.25964336 -185.83984375 19.45703125 C-165.81740434 24.73629766 -147.2995949 35.07602313 -129.46484375 45.33203125 C-70.33382036 79.22022119 -10.70457657 79.27304199 55.09765625 68.83203125 C50.28031112 62.99282504 45.04544096 57.62606849 39.68505859 52.2890625 C38.22898885 50.8383406 36.77832849 49.38236466 35.328125 47.92578125 C31.37711448 43.97224014 27.43053155 40.04705299 23.17578125 36.41796875 C17.36911485 31.44336872 12.09162757 25.89365838 6.72265625 20.45703125 C4.57188324 18.27968205 2.41781502 16.10567023 0.26171875 13.93359375 C-0.22783295 13.43574371 -0.71738464 12.93789368 -1.22177124 12.42495728 C-3.80812805 9.79386703 -3.80812805 9.79386703 -6.90234375 7.83203125 C-6.35985334 4.0345984 -4.40544466 -0.38898177 0 0 Z M-359.32421875 49.01171875 C-368.24087952 58.44679003 -372.42249532 69.11953958 -372.18359375 81.95703125 C-371.60593265 89.91591747 -368.58250477 96.283967 -362.90234375 101.83203125 C-357.79336178 105.46726842 -353.22467739 107.10737576 -346.90234375 106.83203125 C-337.9521193 105.0271926 -330.5412778 99.93759388 -324.90234375 92.83203125 C-319.82807796 84.25356397 -316.25078126 76.18516617 -318.515625 66.1015625 C-322.19070692 53.58685622 -329.48594648 44.26873989 -340.90234375 37.83203125 C-347.47309494 37.83203125 -354.56416871 44.72767371 -359.32421875 49.01171875 Z M-256.96484375 50.45703125 C-268.79189854 62.47877007 -274.08223034 79.34775174 -274.90234375 95.83203125 C-274.55566549 105.50435457 -271.12525806 115.81340624 -264.27734375 122.89453125 C-263.49359375 123.53390625 -262.70984375 124.17328125 -261.90234375 124.83203125 C-260.85046875 125.69828125 -260.85046875 125.69828125 -259.77734375 126.58203125 C-255.22560652 129.61652274 -250.16067247 129.26816806 -244.90234375 128.83203125 C-239.39635026 127.03199492 -236.01515031 123.59328645 -232.90234375 118.83203125 C-229.83004198 112.74523984 -227.2838854 106.69978098 -226.90234375 99.83203125 C-226.85207031 99.09855469 -226.80179687 98.36507812 -226.75 97.609375 C-226.17954478 83.21108519 -231.92362369 70.13272278 -241.40234375 59.45703125 C-242.88730474 57.9008735 -244.38671382 56.35833463 -245.90234375 54.83203125 C-246.59328125 54.1153125 -247.28421875 53.39859375 -247.99609375 52.66015625 C-250.39711208 50.19183972 -250.39711208 50.19183972 -252.90234375 47.83203125 C-254.69783256 47.83203125 -255.69687648 49.28437815 -256.96484375 50.45703125 Z " fill="#00674f" transform="translate(586.90234375,112.16796875)"/>
</svg>
